# xmcd
#
# Track frame offsets:
#	150
#	18409
#	41597
#	61602
#	83868
#	102211
#	121568
#	141206
#	161133
#	181784
#
# Disc length: 2796 seconds
#
# Revision: 1
# Processed by: cddbd v1.5.2PL0 Copyright (c) Steve Scherf et al.
# Submitted via: EZCDAudioConverter 8.0.2.1
#
DISCID=730aea0a
DTITLE=Various Artist - Top Hits 33. Em Vẫn Tin
DYEAR=2007
DGENRE=Pop
TTITLE0=Hồ Lệ Thu - Em Vẫn Tin
TTITLE1=Ngọc Liên - Nếu em được lựa chọn
TTITLE2=Trịnh Lâm - Bao giờ em mới hiểu
TTITLE3=Quỳnh Vi - Tình chấp nhận
TTITLE4=Vân Quỳnh, Hương Giang - Superstar
TTITLE5=Minh Tuyết - Dĩ vãng êm đềm
TTITLE6=Khánh Hà - Mộng sầu
TTITLE7=Thái Hòa - Hạ trắng
TTITLE8=Thế Sơn - Hoang vu
TTITLE9=Trần Thu Hà - Ảo ảnh
EXTD=
EXTT0=
EXTT1=
EXTT2=
EXTT3=
EXTT4=
EXTT5=
EXTT6=
EXTT7=
EXTT8=
EXTT9=
PLAYORDER=
